<mxfile host="app.diagrams.net" modified="2021-02-17T10:59:03.809Z" agent="5.0 (Windows NT 10.0; Win64; x64) AppleWebKit/537.36 (KHTML, like Gecko) Chrome/88.0.4324.96 Safari/537.36 Edg/88.0.705.56" etag="WDrsAe9qj55iGGCRWXg4" version="14.3.2" type="github">
  <diagram id="u2brwqmznn7h5zgTEAcD" name="Page-1">
    <mxGraphModel dx="1422" dy="1883" grid="1" gridSize="10" guides="1" tooltips="1" connect="1" arrows="1" fold="1" page="1" pageScale="1" pageWidth="827" pageHeight="1169" math="0" shadow="0">
      <root>
        <mxCell id="0" />
        <mxCell id="1" parent="0" />
        <mxCell id="-_webPQmhwI-9-KxhWY7-37" value="" style="shape=table;html=1;whiteSpace=wrap;startSize=0;container=1;collapsible=0;childLayout=tableLayout;rowLines=1;columnLines=1;" vertex="1" parent="1">
          <mxGeometry x="120" y="40" width="240" height="160" as="geometry" />
        </mxCell>
        <mxCell id="-_webPQmhwI-9-KxhWY7-38" style="shape=partialRectangle;html=1;whiteSpace=wrap;collapsible=0;dropTarget=0;pointerEvents=0;fillColor=none;top=0;left=0;bottom=0;right=0;points=[[0,0.5],[1,0.5]];portConstraint=eastwest;" vertex="1" parent="-_webPQmhwI-9-KxhWY7-37">
          <mxGeometry width="240" height="40" as="geometry" />
        </mxCell>
        <mxCell id="-_webPQmhwI-9-KxhWY7-39" style="shape=partialRectangle;html=1;whiteSpace=wrap;connectable=0;fillColor=#0050ef;top=0;left=0;bottom=0;right=0;overflow=hidden;strokeColor=#001DBC;fontColor=#ffffff;" vertex="1" parent="-_webPQmhwI-9-KxhWY7-38">
          <mxGeometry width="60" height="40" as="geometry" />
        </mxCell>
        <mxCell id="-_webPQmhwI-9-KxhWY7-40" style="shape=partialRectangle;html=1;whiteSpace=wrap;connectable=0;fillColor=#0050ef;top=0;left=0;bottom=0;right=0;overflow=hidden;strokeColor=#001DBC;fontColor=#ffffff;" vertex="1" parent="-_webPQmhwI-9-KxhWY7-38">
          <mxGeometry x="60" width="60" height="40" as="geometry" />
        </mxCell>
        <mxCell id="-_webPQmhwI-9-KxhWY7-41" style="shape=partialRectangle;html=1;whiteSpace=wrap;connectable=0;fillColor=#0050ef;top=0;left=0;bottom=0;right=0;overflow=hidden;strokeColor=#001DBC;fontColor=#ffffff;" vertex="1" parent="-_webPQmhwI-9-KxhWY7-38">
          <mxGeometry x="120" width="60" height="40" as="geometry" />
        </mxCell>
        <mxCell id="-_webPQmhwI-9-KxhWY7-42" style="shape=partialRectangle;html=1;whiteSpace=wrap;connectable=0;fillColor=none;top=0;left=0;bottom=0;right=0;overflow=hidden;" vertex="1" parent="-_webPQmhwI-9-KxhWY7-38">
          <mxGeometry x="180" width="60" height="40" as="geometry" />
        </mxCell>
        <mxCell id="-_webPQmhwI-9-KxhWY7-43" value="" style="shape=partialRectangle;html=1;whiteSpace=wrap;collapsible=0;dropTarget=0;pointerEvents=0;fillColor=none;top=0;left=0;bottom=0;right=0;points=[[0,0.5],[1,0.5]];portConstraint=eastwest;" vertex="1" parent="-_webPQmhwI-9-KxhWY7-37">
          <mxGeometry y="40" width="240" height="40" as="geometry" />
        </mxCell>
        <mxCell id="-_webPQmhwI-9-KxhWY7-44" style="shape=partialRectangle;html=1;whiteSpace=wrap;connectable=0;fillColor=none;top=0;left=0;bottom=0;right=0;overflow=hidden;" vertex="1" parent="-_webPQmhwI-9-KxhWY7-43">
          <mxGeometry width="60" height="40" as="geometry" />
        </mxCell>
        <mxCell id="-_webPQmhwI-9-KxhWY7-45" value="" style="shape=partialRectangle;html=1;whiteSpace=wrap;connectable=0;fillColor=#d80073;top=0;left=0;bottom=0;right=0;overflow=hidden;strokeColor=#A50040;fontColor=#ffffff;" vertex="1" parent="-_webPQmhwI-9-KxhWY7-43">
          <mxGeometry x="60" width="60" height="40" as="geometry" />
        </mxCell>
        <mxCell id="-_webPQmhwI-9-KxhWY7-46" value="" style="shape=partialRectangle;html=1;whiteSpace=wrap;connectable=0;fillColor=#0050ef;top=0;left=0;bottom=0;right=0;overflow=hidden;strokeColor=#001DBC;fontColor=#ffffff;" vertex="1" parent="-_webPQmhwI-9-KxhWY7-43">
          <mxGeometry x="120" width="60" height="40" as="geometry" />
        </mxCell>
        <mxCell id="-_webPQmhwI-9-KxhWY7-47" style="shape=partialRectangle;html=1;whiteSpace=wrap;connectable=0;fillColor=none;top=0;left=0;bottom=0;right=0;overflow=hidden;" vertex="1" parent="-_webPQmhwI-9-KxhWY7-43">
          <mxGeometry x="180" width="60" height="40" as="geometry" />
        </mxCell>
        <mxCell id="-_webPQmhwI-9-KxhWY7-48" value="" style="shape=partialRectangle;html=1;whiteSpace=wrap;collapsible=0;dropTarget=0;pointerEvents=0;fillColor=none;top=0;left=0;bottom=0;right=0;points=[[0,0.5],[1,0.5]];portConstraint=eastwest;" vertex="1" parent="-_webPQmhwI-9-KxhWY7-37">
          <mxGeometry y="80" width="240" height="40" as="geometry" />
        </mxCell>
        <mxCell id="-_webPQmhwI-9-KxhWY7-49" style="shape=partialRectangle;html=1;whiteSpace=wrap;connectable=0;fillColor=none;top=0;left=0;bottom=0;right=0;overflow=hidden;" vertex="1" parent="-_webPQmhwI-9-KxhWY7-48">
          <mxGeometry width="60" height="40" as="geometry" />
        </mxCell>
        <mxCell id="-_webPQmhwI-9-KxhWY7-50" value="" style="shape=partialRectangle;html=1;whiteSpace=wrap;connectable=0;fillColor=#d80073;top=0;left=0;bottom=0;right=0;overflow=hidden;strokeColor=#A50040;fontColor=#ffffff;" vertex="1" parent="-_webPQmhwI-9-KxhWY7-48">
          <mxGeometry x="60" width="60" height="40" as="geometry" />
        </mxCell>
        <mxCell id="-_webPQmhwI-9-KxhWY7-51" value="" style="shape=partialRectangle;html=1;whiteSpace=wrap;connectable=0;fillColor=none;top=0;left=0;bottom=0;right=0;overflow=hidden;" vertex="1" parent="-_webPQmhwI-9-KxhWY7-48">
          <mxGeometry x="120" width="60" height="40" as="geometry" />
        </mxCell>
        <mxCell id="-_webPQmhwI-9-KxhWY7-52" style="shape=partialRectangle;html=1;whiteSpace=wrap;connectable=0;fillColor=#d80073;top=0;left=0;bottom=0;right=0;overflow=hidden;strokeColor=#A50040;fontColor=#ffffff;" vertex="1" parent="-_webPQmhwI-9-KxhWY7-48">
          <mxGeometry x="180" width="60" height="40" as="geometry" />
        </mxCell>
        <mxCell id="-_webPQmhwI-9-KxhWY7-53" value="" style="shape=partialRectangle;html=1;whiteSpace=wrap;collapsible=0;dropTarget=0;pointerEvents=0;fillColor=none;top=0;left=0;bottom=0;right=0;points=[[0,0.5],[1,0.5]];portConstraint=eastwest;" vertex="1" parent="-_webPQmhwI-9-KxhWY7-37">
          <mxGeometry y="120" width="240" height="40" as="geometry" />
        </mxCell>
        <mxCell id="-_webPQmhwI-9-KxhWY7-54" style="shape=partialRectangle;html=1;whiteSpace=wrap;connectable=0;fillColor=#0050ef;top=0;left=0;bottom=0;right=0;overflow=hidden;strokeColor=#001DBC;fontColor=#ffffff;" vertex="1" parent="-_webPQmhwI-9-KxhWY7-53">
          <mxGeometry width="60" height="40" as="geometry" />
        </mxCell>
        <mxCell id="-_webPQmhwI-9-KxhWY7-55" value="" style="shape=partialRectangle;html=1;whiteSpace=wrap;connectable=0;fillColor=none;top=0;left=0;bottom=0;right=0;overflow=hidden;" vertex="1" parent="-_webPQmhwI-9-KxhWY7-53">
          <mxGeometry x="60" width="60" height="40" as="geometry" />
        </mxCell>
        <mxCell id="-_webPQmhwI-9-KxhWY7-56" value="" style="shape=partialRectangle;html=1;whiteSpace=wrap;connectable=0;fillColor=#0050ef;top=0;left=0;bottom=0;right=0;overflow=hidden;strokeColor=#001DBC;fontColor=#ffffff;" vertex="1" parent="-_webPQmhwI-9-KxhWY7-53">
          <mxGeometry x="120" width="60" height="40" as="geometry" />
        </mxCell>
        <mxCell id="-_webPQmhwI-9-KxhWY7-57" style="shape=partialRectangle;html=1;whiteSpace=wrap;connectable=0;fillColor=none;top=0;left=0;bottom=0;right=0;overflow=hidden;" vertex="1" parent="-_webPQmhwI-9-KxhWY7-53">
          <mxGeometry x="180" width="60" height="40" as="geometry" />
        </mxCell>
        <mxCell id="-_webPQmhwI-9-KxhWY7-101" value="S0" style="rounded=0;whiteSpace=wrap;html=1;fontSize=20;" vertex="1" parent="1">
          <mxGeometry x="180" y="-30" width="120" height="60" as="geometry" />
        </mxCell>
        <mxCell id="-_webPQmhwI-9-KxhWY7-102" value="S1" style="rounded=0;whiteSpace=wrap;html=1;fontSize=20;" vertex="1" parent="1">
          <mxGeometry x="520" y="-30" width="120" height="60" as="geometry" />
        </mxCell>
        <mxCell id="-_webPQmhwI-9-KxhWY7-103" value="" style="shape=table;html=1;whiteSpace=wrap;startSize=0;container=1;collapsible=0;childLayout=tableLayout;" vertex="1" parent="1">
          <mxGeometry x="460" y="280" width="240" height="160" as="geometry" />
        </mxCell>
        <mxCell id="-_webPQmhwI-9-KxhWY7-104" value="" style="shape=partialRectangle;html=1;whiteSpace=wrap;collapsible=0;dropTarget=0;pointerEvents=0;fillColor=none;top=0;left=0;bottom=0;right=0;points=[[0,0.5],[1,0.5]];portConstraint=eastwest;" vertex="1" parent="-_webPQmhwI-9-KxhWY7-103">
          <mxGeometry width="240" height="40" as="geometry" />
        </mxCell>
        <mxCell id="-_webPQmhwI-9-KxhWY7-105" value="" style="shape=partialRectangle;html=1;whiteSpace=wrap;connectable=0;fillColor=#0050ef;top=0;left=0;bottom=0;right=0;overflow=hidden;strokeColor=#001DBC;fontColor=#ffffff;" vertex="1" parent="-_webPQmhwI-9-KxhWY7-104">
          <mxGeometry width="60" height="40" as="geometry" />
        </mxCell>
        <mxCell id="-_webPQmhwI-9-KxhWY7-106" value="" style="shape=partialRectangle;html=1;whiteSpace=wrap;connectable=0;fillColor=#0050ef;top=0;left=0;bottom=0;right=0;overflow=hidden;strokeColor=#001DBC;fontColor=#ffffff;" vertex="1" parent="-_webPQmhwI-9-KxhWY7-104">
          <mxGeometry x="60" width="60" height="40" as="geometry" />
        </mxCell>
        <mxCell id="-_webPQmhwI-9-KxhWY7-107" value="" style="shape=partialRectangle;html=1;whiteSpace=wrap;connectable=0;fillColor=#0050ef;top=0;left=0;bottom=0;right=0;overflow=hidden;strokeColor=#001DBC;fontColor=#ffffff;" vertex="1" parent="-_webPQmhwI-9-KxhWY7-104">
          <mxGeometry x="120" width="60" height="40" as="geometry" />
        </mxCell>
        <mxCell id="-_webPQmhwI-9-KxhWY7-108" style="shape=partialRectangle;html=1;whiteSpace=wrap;connectable=0;fillColor=#0050ef;top=0;left=0;bottom=0;right=0;overflow=hidden;strokeColor=#001DBC;fontColor=#ffffff;" vertex="1" parent="-_webPQmhwI-9-KxhWY7-104">
          <mxGeometry x="180" width="60" height="40" as="geometry" />
        </mxCell>
        <mxCell id="-_webPQmhwI-9-KxhWY7-109" value="" style="shape=partialRectangle;html=1;whiteSpace=wrap;collapsible=0;dropTarget=0;pointerEvents=0;fillColor=none;top=0;left=0;bottom=0;right=0;points=[[0,0.5],[1,0.5]];portConstraint=eastwest;" vertex="1" parent="-_webPQmhwI-9-KxhWY7-103">
          <mxGeometry y="40" width="240" height="40" as="geometry" />
        </mxCell>
        <mxCell id="-_webPQmhwI-9-KxhWY7-110" value="" style="shape=partialRectangle;html=1;whiteSpace=wrap;connectable=0;fillColor=#0050ef;top=0;left=0;bottom=0;right=0;overflow=hidden;strokeColor=#001DBC;fontColor=#ffffff;" vertex="1" parent="-_webPQmhwI-9-KxhWY7-109">
          <mxGeometry width="60" height="40" as="geometry" />
        </mxCell>
        <mxCell id="-_webPQmhwI-9-KxhWY7-111" value="" style="shape=partialRectangle;html=1;whiteSpace=wrap;connectable=0;fillColor=#0050ef;top=0;left=0;bottom=0;right=0;overflow=hidden;strokeColor=#001DBC;fontColor=#ffffff;" vertex="1" parent="-_webPQmhwI-9-KxhWY7-109">
          <mxGeometry x="60" width="60" height="40" as="geometry" />
        </mxCell>
        <mxCell id="-_webPQmhwI-9-KxhWY7-112" value="" style="shape=partialRectangle;html=1;whiteSpace=wrap;connectable=0;fillColor=none;top=0;left=0;bottom=0;right=0;overflow=hidden;" vertex="1" parent="-_webPQmhwI-9-KxhWY7-109">
          <mxGeometry x="120" width="60" height="40" as="geometry" />
        </mxCell>
        <mxCell id="-_webPQmhwI-9-KxhWY7-113" style="shape=partialRectangle;html=1;whiteSpace=wrap;connectable=0;fillColor=none;top=0;left=0;bottom=0;right=0;overflow=hidden;" vertex="1" parent="-_webPQmhwI-9-KxhWY7-109">
          <mxGeometry x="180" width="60" height="40" as="geometry" />
        </mxCell>
        <mxCell id="-_webPQmhwI-9-KxhWY7-114" value="" style="shape=partialRectangle;html=1;whiteSpace=wrap;collapsible=0;dropTarget=0;pointerEvents=0;fillColor=none;top=0;left=0;bottom=0;right=0;points=[[0,0.5],[1,0.5]];portConstraint=eastwest;" vertex="1" parent="-_webPQmhwI-9-KxhWY7-103">
          <mxGeometry y="80" width="240" height="40" as="geometry" />
        </mxCell>
        <mxCell id="-_webPQmhwI-9-KxhWY7-115" value="" style="shape=partialRectangle;html=1;whiteSpace=wrap;connectable=0;fillColor=none;top=0;left=0;bottom=0;right=0;overflow=hidden;" vertex="1" parent="-_webPQmhwI-9-KxhWY7-114">
          <mxGeometry width="60" height="40" as="geometry" />
        </mxCell>
        <mxCell id="-_webPQmhwI-9-KxhWY7-116" value="" style="shape=partialRectangle;html=1;whiteSpace=wrap;connectable=0;fillColor=none;top=0;left=0;bottom=0;right=0;overflow=hidden;" vertex="1" parent="-_webPQmhwI-9-KxhWY7-114">
          <mxGeometry x="60" width="60" height="40" as="geometry" />
        </mxCell>
        <mxCell id="-_webPQmhwI-9-KxhWY7-117" value="" style="shape=partialRectangle;html=1;whiteSpace=wrap;connectable=0;fillColor=none;top=0;left=0;bottom=0;right=0;overflow=hidden;" vertex="1" parent="-_webPQmhwI-9-KxhWY7-114">
          <mxGeometry x="120" width="60" height="40" as="geometry" />
        </mxCell>
        <mxCell id="-_webPQmhwI-9-KxhWY7-118" style="shape=partialRectangle;html=1;whiteSpace=wrap;connectable=0;fillColor=none;top=0;left=0;bottom=0;right=0;overflow=hidden;" vertex="1" parent="-_webPQmhwI-9-KxhWY7-114">
          <mxGeometry x="180" width="60" height="40" as="geometry" />
        </mxCell>
        <mxCell id="-_webPQmhwI-9-KxhWY7-119" style="shape=partialRectangle;html=1;whiteSpace=wrap;collapsible=0;dropTarget=0;pointerEvents=0;fillColor=none;top=0;left=0;bottom=0;right=0;points=[[0,0.5],[1,0.5]];portConstraint=eastwest;" vertex="1" parent="-_webPQmhwI-9-KxhWY7-103">
          <mxGeometry y="120" width="240" height="40" as="geometry" />
        </mxCell>
        <mxCell id="-_webPQmhwI-9-KxhWY7-120" style="shape=partialRectangle;html=1;whiteSpace=wrap;connectable=0;fillColor=none;top=0;left=0;bottom=0;right=0;overflow=hidden;" vertex="1" parent="-_webPQmhwI-9-KxhWY7-119">
          <mxGeometry width="60" height="40" as="geometry" />
        </mxCell>
        <mxCell id="-_webPQmhwI-9-KxhWY7-121" style="shape=partialRectangle;html=1;whiteSpace=wrap;connectable=0;fillColor=none;top=0;left=0;bottom=0;right=0;overflow=hidden;" vertex="1" parent="-_webPQmhwI-9-KxhWY7-119">
          <mxGeometry x="60" width="60" height="40" as="geometry" />
        </mxCell>
        <mxCell id="-_webPQmhwI-9-KxhWY7-122" style="shape=partialRectangle;html=1;whiteSpace=wrap;connectable=0;fillColor=none;top=0;left=0;bottom=0;right=0;overflow=hidden;" vertex="1" parent="-_webPQmhwI-9-KxhWY7-119">
          <mxGeometry x="120" width="60" height="40" as="geometry" />
        </mxCell>
        <mxCell id="-_webPQmhwI-9-KxhWY7-123" style="shape=partialRectangle;html=1;whiteSpace=wrap;connectable=0;fillColor=none;top=0;left=0;bottom=0;right=0;overflow=hidden;" vertex="1" parent="-_webPQmhwI-9-KxhWY7-119">
          <mxGeometry x="180" width="60" height="40" as="geometry" />
        </mxCell>
        <mxCell id="-_webPQmhwI-9-KxhWY7-124" value="" style="shape=table;html=1;whiteSpace=wrap;startSize=0;container=1;collapsible=0;childLayout=tableLayout;rowLines=1;columnLines=1;" vertex="1" parent="1">
          <mxGeometry x="120" y="280" width="240" height="160" as="geometry" />
        </mxCell>
        <mxCell id="-_webPQmhwI-9-KxhWY7-125" style="shape=partialRectangle;html=1;whiteSpace=wrap;collapsible=0;dropTarget=0;pointerEvents=0;fillColor=none;top=0;left=0;bottom=0;right=0;points=[[0,0.5],[1,0.5]];portConstraint=eastwest;" vertex="1" parent="-_webPQmhwI-9-KxhWY7-124">
          <mxGeometry width="240" height="40" as="geometry" />
        </mxCell>
        <mxCell id="-_webPQmhwI-9-KxhWY7-126" style="shape=partialRectangle;html=1;whiteSpace=wrap;connectable=0;fillColor=#0050ef;top=0;left=0;bottom=0;right=0;overflow=hidden;strokeColor=#001DBC;fontColor=#ffffff;" vertex="1" parent="-_webPQmhwI-9-KxhWY7-125">
          <mxGeometry width="60" height="40" as="geometry" />
        </mxCell>
        <mxCell id="-_webPQmhwI-9-KxhWY7-127" style="shape=partialRectangle;html=1;whiteSpace=wrap;connectable=0;fillColor=#0050ef;top=0;left=0;bottom=0;right=0;overflow=hidden;strokeColor=#001DBC;fontColor=#ffffff;" vertex="1" parent="-_webPQmhwI-9-KxhWY7-125">
          <mxGeometry x="60" width="60" height="40" as="geometry" />
        </mxCell>
        <mxCell id="-_webPQmhwI-9-KxhWY7-128" style="shape=partialRectangle;html=1;whiteSpace=wrap;connectable=0;fillColor=#0050ef;top=0;left=0;bottom=0;right=0;overflow=hidden;strokeColor=#001DBC;fontColor=#ffffff;" vertex="1" parent="-_webPQmhwI-9-KxhWY7-125">
          <mxGeometry x="120" width="60" height="40" as="geometry" />
        </mxCell>
        <mxCell id="-_webPQmhwI-9-KxhWY7-129" style="shape=partialRectangle;html=1;whiteSpace=wrap;connectable=0;fillColor=none;top=0;left=0;bottom=0;right=0;overflow=hidden;" vertex="1" parent="-_webPQmhwI-9-KxhWY7-125">
          <mxGeometry x="180" width="60" height="40" as="geometry" />
        </mxCell>
        <mxCell id="-_webPQmhwI-9-KxhWY7-130" value="" style="shape=partialRectangle;html=1;whiteSpace=wrap;collapsible=0;dropTarget=0;pointerEvents=0;fillColor=none;top=0;left=0;bottom=0;right=0;points=[[0,0.5],[1,0.5]];portConstraint=eastwest;" vertex="1" parent="-_webPQmhwI-9-KxhWY7-124">
          <mxGeometry y="40" width="240" height="40" as="geometry" />
        </mxCell>
        <mxCell id="-_webPQmhwI-9-KxhWY7-131" style="shape=partialRectangle;html=1;whiteSpace=wrap;connectable=0;fillColor=none;top=0;left=0;bottom=0;right=0;overflow=hidden;" vertex="1" parent="-_webPQmhwI-9-KxhWY7-130">
          <mxGeometry width="60" height="40" as="geometry" />
        </mxCell>
        <mxCell id="-_webPQmhwI-9-KxhWY7-132" value="" style="shape=partialRectangle;html=1;whiteSpace=wrap;connectable=0;fillColor=#d80073;top=0;left=0;bottom=0;right=0;overflow=hidden;strokeColor=#A50040;fontColor=#ffffff;" vertex="1" parent="-_webPQmhwI-9-KxhWY7-130">
          <mxGeometry x="60" width="60" height="40" as="geometry" />
        </mxCell>
        <mxCell id="-_webPQmhwI-9-KxhWY7-133" value="" style="shape=partialRectangle;html=1;whiteSpace=wrap;connectable=0;fillColor=#0050ef;top=0;left=0;bottom=0;right=0;overflow=hidden;strokeColor=#001DBC;fontColor=#ffffff;" vertex="1" parent="-_webPQmhwI-9-KxhWY7-130">
          <mxGeometry x="120" width="60" height="40" as="geometry" />
        </mxCell>
        <mxCell id="-_webPQmhwI-9-KxhWY7-134" style="shape=partialRectangle;html=1;whiteSpace=wrap;connectable=0;fillColor=none;top=0;left=0;bottom=0;right=0;overflow=hidden;" vertex="1" parent="-_webPQmhwI-9-KxhWY7-130">
          <mxGeometry x="180" width="60" height="40" as="geometry" />
        </mxCell>
        <mxCell id="-_webPQmhwI-9-KxhWY7-135" value="" style="shape=partialRectangle;html=1;whiteSpace=wrap;collapsible=0;dropTarget=0;pointerEvents=0;fillColor=none;top=0;left=0;bottom=0;right=0;points=[[0,0.5],[1,0.5]];portConstraint=eastwest;" vertex="1" parent="-_webPQmhwI-9-KxhWY7-124">
          <mxGeometry y="80" width="240" height="40" as="geometry" />
        </mxCell>
        <mxCell id="-_webPQmhwI-9-KxhWY7-136" style="shape=partialRectangle;html=1;whiteSpace=wrap;connectable=0;fillColor=none;top=0;left=0;bottom=0;right=0;overflow=hidden;" vertex="1" parent="-_webPQmhwI-9-KxhWY7-135">
          <mxGeometry width="60" height="40" as="geometry" />
        </mxCell>
        <mxCell id="-_webPQmhwI-9-KxhWY7-137" value="" style="shape=partialRectangle;html=1;whiteSpace=wrap;connectable=0;fillColor=#d80073;top=0;left=0;bottom=0;right=0;overflow=hidden;strokeColor=#A50040;fontColor=#ffffff;" vertex="1" parent="-_webPQmhwI-9-KxhWY7-135">
          <mxGeometry x="60" width="60" height="40" as="geometry" />
        </mxCell>
        <mxCell id="-_webPQmhwI-9-KxhWY7-138" value="" style="shape=partialRectangle;html=1;whiteSpace=wrap;connectable=0;fillColor=none;top=0;left=0;bottom=0;right=0;overflow=hidden;" vertex="1" parent="-_webPQmhwI-9-KxhWY7-135">
          <mxGeometry x="120" width="60" height="40" as="geometry" />
        </mxCell>
        <mxCell id="-_webPQmhwI-9-KxhWY7-139" style="shape=partialRectangle;html=1;whiteSpace=wrap;connectable=0;fillColor=#d80073;top=0;left=0;bottom=0;right=0;overflow=hidden;strokeColor=#A50040;fontColor=#ffffff;" vertex="1" parent="-_webPQmhwI-9-KxhWY7-135">
          <mxGeometry x="180" width="60" height="40" as="geometry" />
        </mxCell>
        <mxCell id="-_webPQmhwI-9-KxhWY7-140" value="" style="shape=partialRectangle;html=1;whiteSpace=wrap;collapsible=0;dropTarget=0;pointerEvents=0;fillColor=none;top=0;left=0;bottom=0;right=0;points=[[0,0.5],[1,0.5]];portConstraint=eastwest;" vertex="1" parent="-_webPQmhwI-9-KxhWY7-124">
          <mxGeometry y="120" width="240" height="40" as="geometry" />
        </mxCell>
        <mxCell id="-_webPQmhwI-9-KxhWY7-141" style="shape=partialRectangle;html=1;whiteSpace=wrap;connectable=0;fillColor=#0050ef;top=0;left=0;bottom=0;right=0;overflow=hidden;strokeColor=#001DBC;fontColor=#ffffff;" vertex="1" parent="-_webPQmhwI-9-KxhWY7-140">
          <mxGeometry width="60" height="40" as="geometry" />
        </mxCell>
        <mxCell id="-_webPQmhwI-9-KxhWY7-142" value="" style="shape=partialRectangle;html=1;whiteSpace=wrap;connectable=0;fillColor=none;top=0;left=0;bottom=0;right=0;overflow=hidden;" vertex="1" parent="-_webPQmhwI-9-KxhWY7-140">
          <mxGeometry x="60" width="60" height="40" as="geometry" />
        </mxCell>
        <mxCell id="-_webPQmhwI-9-KxhWY7-143" value="" style="shape=partialRectangle;html=1;whiteSpace=wrap;connectable=0;fillColor=#0050ef;top=0;left=0;bottom=0;right=0;overflow=hidden;strokeColor=#001DBC;fontColor=#ffffff;" vertex="1" parent="-_webPQmhwI-9-KxhWY7-140">
          <mxGeometry x="120" width="60" height="40" as="geometry" />
        </mxCell>
        <mxCell id="-_webPQmhwI-9-KxhWY7-144" style="shape=partialRectangle;html=1;whiteSpace=wrap;connectable=0;fillColor=none;top=0;left=0;bottom=0;right=0;overflow=hidden;" vertex="1" parent="-_webPQmhwI-9-KxhWY7-140">
          <mxGeometry x="180" width="60" height="40" as="geometry" />
        </mxCell>
        <mxCell id="-_webPQmhwI-9-KxhWY7-145" value="" style="shape=table;html=1;whiteSpace=wrap;startSize=0;container=1;collapsible=0;childLayout=tableLayout;" vertex="1" parent="1">
          <mxGeometry x="460" y="520" width="240" height="160" as="geometry" />
        </mxCell>
        <mxCell id="-_webPQmhwI-9-KxhWY7-146" value="" style="shape=partialRectangle;html=1;whiteSpace=wrap;collapsible=0;dropTarget=0;pointerEvents=0;fillColor=none;top=0;left=0;bottom=0;right=0;points=[[0,0.5],[1,0.5]];portConstraint=eastwest;" vertex="1" parent="-_webPQmhwI-9-KxhWY7-145">
          <mxGeometry width="240" height="40" as="geometry" />
        </mxCell>
        <mxCell id="-_webPQmhwI-9-KxhWY7-147" value="" style="shape=partialRectangle;html=1;whiteSpace=wrap;connectable=0;fillColor=#0050ef;top=0;left=0;bottom=0;right=0;overflow=hidden;strokeColor=#001DBC;fontColor=#ffffff;" vertex="1" parent="-_webPQmhwI-9-KxhWY7-146">
          <mxGeometry width="60" height="40" as="geometry" />
        </mxCell>
        <mxCell id="-_webPQmhwI-9-KxhWY7-148" value="" style="shape=partialRectangle;html=1;whiteSpace=wrap;connectable=0;fillColor=#0050ef;top=0;left=0;bottom=0;right=0;overflow=hidden;strokeColor=#001DBC;fontColor=#ffffff;" vertex="1" parent="-_webPQmhwI-9-KxhWY7-146">
          <mxGeometry x="60" width="60" height="40" as="geometry" />
        </mxCell>
        <mxCell id="-_webPQmhwI-9-KxhWY7-149" value="" style="shape=partialRectangle;html=1;whiteSpace=wrap;connectable=0;fillColor=#0050ef;top=0;left=0;bottom=0;right=0;overflow=hidden;strokeColor=#001DBC;fontColor=#ffffff;" vertex="1" parent="-_webPQmhwI-9-KxhWY7-146">
          <mxGeometry x="120" width="60" height="40" as="geometry" />
        </mxCell>
        <mxCell id="-_webPQmhwI-9-KxhWY7-150" style="shape=partialRectangle;html=1;whiteSpace=wrap;connectable=0;fillColor=#0050ef;top=0;left=0;bottom=0;right=0;overflow=hidden;strokeColor=#001DBC;fontColor=#ffffff;" vertex="1" parent="-_webPQmhwI-9-KxhWY7-146">
          <mxGeometry x="180" width="60" height="40" as="geometry" />
        </mxCell>
        <mxCell id="-_webPQmhwI-9-KxhWY7-151" value="" style="shape=partialRectangle;html=1;whiteSpace=wrap;collapsible=0;dropTarget=0;pointerEvents=0;fillColor=none;top=0;left=0;bottom=0;right=0;points=[[0,0.5],[1,0.5]];portConstraint=eastwest;" vertex="1" parent="-_webPQmhwI-9-KxhWY7-145">
          <mxGeometry y="40" width="240" height="40" as="geometry" />
        </mxCell>
        <mxCell id="-_webPQmhwI-9-KxhWY7-152" value="" style="shape=partialRectangle;html=1;whiteSpace=wrap;connectable=0;fillColor=#0050ef;top=0;left=0;bottom=0;right=0;overflow=hidden;strokeColor=#001DBC;fontColor=#ffffff;" vertex="1" parent="-_webPQmhwI-9-KxhWY7-151">
          <mxGeometry width="60" height="40" as="geometry" />
        </mxCell>
        <mxCell id="-_webPQmhwI-9-KxhWY7-153" value="" style="shape=partialRectangle;html=1;whiteSpace=wrap;connectable=0;fillColor=#0050ef;top=0;left=0;bottom=0;right=0;overflow=hidden;strokeColor=#001DBC;fontColor=#ffffff;" vertex="1" parent="-_webPQmhwI-9-KxhWY7-151">
          <mxGeometry x="60" width="60" height="40" as="geometry" />
        </mxCell>
        <mxCell id="-_webPQmhwI-9-KxhWY7-154" value="" style="shape=partialRectangle;html=1;whiteSpace=wrap;connectable=0;fillColor=none;top=0;left=0;bottom=0;right=0;overflow=hidden;" vertex="1" parent="-_webPQmhwI-9-KxhWY7-151">
          <mxGeometry x="120" width="60" height="40" as="geometry" />
        </mxCell>
        <mxCell id="-_webPQmhwI-9-KxhWY7-155" style="shape=partialRectangle;html=1;whiteSpace=wrap;connectable=0;fillColor=none;top=0;left=0;bottom=0;right=0;overflow=hidden;" vertex="1" parent="-_webPQmhwI-9-KxhWY7-151">
          <mxGeometry x="180" width="60" height="40" as="geometry" />
        </mxCell>
        <mxCell id="-_webPQmhwI-9-KxhWY7-156" value="" style="shape=partialRectangle;html=1;whiteSpace=wrap;collapsible=0;dropTarget=0;pointerEvents=0;fillColor=none;top=0;left=0;bottom=0;right=0;points=[[0,0.5],[1,0.5]];portConstraint=eastwest;" vertex="1" parent="-_webPQmhwI-9-KxhWY7-145">
          <mxGeometry y="80" width="240" height="40" as="geometry" />
        </mxCell>
        <mxCell id="-_webPQmhwI-9-KxhWY7-157" value="" style="shape=partialRectangle;html=1;whiteSpace=wrap;connectable=0;fillColor=none;top=0;left=0;bottom=0;right=0;overflow=hidden;" vertex="1" parent="-_webPQmhwI-9-KxhWY7-156">
          <mxGeometry width="60" height="40" as="geometry" />
        </mxCell>
        <mxCell id="-_webPQmhwI-9-KxhWY7-158" value="" style="shape=partialRectangle;html=1;whiteSpace=wrap;connectable=0;fillColor=none;top=0;left=0;bottom=0;right=0;overflow=hidden;" vertex="1" parent="-_webPQmhwI-9-KxhWY7-156">
          <mxGeometry x="60" width="60" height="40" as="geometry" />
        </mxCell>
        <mxCell id="-_webPQmhwI-9-KxhWY7-159" value="" style="shape=partialRectangle;html=1;whiteSpace=wrap;connectable=0;fillColor=none;top=0;left=0;bottom=0;right=0;overflow=hidden;" vertex="1" parent="-_webPQmhwI-9-KxhWY7-156">
          <mxGeometry x="120" width="60" height="40" as="geometry" />
        </mxCell>
        <mxCell id="-_webPQmhwI-9-KxhWY7-160" style="shape=partialRectangle;html=1;whiteSpace=wrap;connectable=0;fillColor=none;top=0;left=0;bottom=0;right=0;overflow=hidden;" vertex="1" parent="-_webPQmhwI-9-KxhWY7-156">
          <mxGeometry x="180" width="60" height="40" as="geometry" />
        </mxCell>
        <mxCell id="-_webPQmhwI-9-KxhWY7-161" style="shape=partialRectangle;html=1;whiteSpace=wrap;collapsible=0;dropTarget=0;pointerEvents=0;fillColor=none;top=0;left=0;bottom=0;right=0;points=[[0,0.5],[1,0.5]];portConstraint=eastwest;" vertex="1" parent="-_webPQmhwI-9-KxhWY7-145">
          <mxGeometry y="120" width="240" height="40" as="geometry" />
        </mxCell>
        <mxCell id="-_webPQmhwI-9-KxhWY7-162" style="shape=partialRectangle;html=1;whiteSpace=wrap;connectable=0;fillColor=none;top=0;left=0;bottom=0;right=0;overflow=hidden;" vertex="1" parent="-_webPQmhwI-9-KxhWY7-161">
          <mxGeometry width="60" height="40" as="geometry" />
        </mxCell>
        <mxCell id="-_webPQmhwI-9-KxhWY7-163" style="shape=partialRectangle;html=1;whiteSpace=wrap;connectable=0;fillColor=none;top=0;left=0;bottom=0;right=0;overflow=hidden;" vertex="1" parent="-_webPQmhwI-9-KxhWY7-161">
          <mxGeometry x="60" width="60" height="40" as="geometry" />
        </mxCell>
        <mxCell id="-_webPQmhwI-9-KxhWY7-164" style="shape=partialRectangle;html=1;whiteSpace=wrap;connectable=0;fillColor=none;top=0;left=0;bottom=0;right=0;overflow=hidden;" vertex="1" parent="-_webPQmhwI-9-KxhWY7-161">
          <mxGeometry x="120" width="60" height="40" as="geometry" />
        </mxCell>
        <mxCell id="-_webPQmhwI-9-KxhWY7-165" style="shape=partialRectangle;html=1;whiteSpace=wrap;connectable=0;fillColor=none;top=0;left=0;bottom=0;right=0;overflow=hidden;" vertex="1" parent="-_webPQmhwI-9-KxhWY7-161">
          <mxGeometry x="180" width="60" height="40" as="geometry" />
        </mxCell>
        <mxCell id="-_webPQmhwI-9-KxhWY7-187" value="" style="shape=table;html=1;whiteSpace=wrap;startSize=0;container=1;collapsible=0;childLayout=tableLayout;fontSize=20;" vertex="1" parent="1">
          <mxGeometry x="120" y="520" width="240" height="160" as="geometry" />
        </mxCell>
        <mxCell id="-_webPQmhwI-9-KxhWY7-188" value="" style="shape=partialRectangle;html=1;whiteSpace=wrap;collapsible=0;dropTarget=0;pointerEvents=0;fillColor=none;top=0;left=0;bottom=0;right=0;points=[[0,0.5],[1,0.5]];portConstraint=eastwest;" vertex="1" parent="-_webPQmhwI-9-KxhWY7-187">
          <mxGeometry width="240" height="40" as="geometry" />
        </mxCell>
        <mxCell id="-_webPQmhwI-9-KxhWY7-189" value="" style="shape=partialRectangle;html=1;whiteSpace=wrap;connectable=0;fillColor=none;top=0;left=0;bottom=0;right=0;overflow=hidden;" vertex="1" parent="-_webPQmhwI-9-KxhWY7-188">
          <mxGeometry width="60" height="40" as="geometry" />
        </mxCell>
        <mxCell id="-_webPQmhwI-9-KxhWY7-190" value="" style="shape=partialRectangle;html=1;whiteSpace=wrap;connectable=0;fillColor=none;top=0;left=0;bottom=0;right=0;overflow=hidden;" vertex="1" parent="-_webPQmhwI-9-KxhWY7-188">
          <mxGeometry x="60" width="60" height="40" as="geometry" />
        </mxCell>
        <mxCell id="-_webPQmhwI-9-KxhWY7-191" value="" style="shape=partialRectangle;html=1;whiteSpace=wrap;connectable=0;fillColor=none;top=0;left=0;bottom=0;right=0;overflow=hidden;" vertex="1" parent="-_webPQmhwI-9-KxhWY7-188">
          <mxGeometry x="120" width="60" height="40" as="geometry" />
        </mxCell>
        <mxCell id="-_webPQmhwI-9-KxhWY7-200" style="shape=partialRectangle;html=1;whiteSpace=wrap;connectable=0;fillColor=none;top=0;left=0;bottom=0;right=0;overflow=hidden;" vertex="1" parent="-_webPQmhwI-9-KxhWY7-188">
          <mxGeometry x="180" width="60" height="40" as="geometry" />
        </mxCell>
        <mxCell id="-_webPQmhwI-9-KxhWY7-192" value="" style="shape=partialRectangle;html=1;whiteSpace=wrap;collapsible=0;dropTarget=0;pointerEvents=0;fillColor=none;top=0;left=0;bottom=0;right=0;points=[[0,0.5],[1,0.5]];portConstraint=eastwest;" vertex="1" parent="-_webPQmhwI-9-KxhWY7-187">
          <mxGeometry y="40" width="240" height="40" as="geometry" />
        </mxCell>
        <mxCell id="-_webPQmhwI-9-KxhWY7-193" value="" style="shape=partialRectangle;html=1;whiteSpace=wrap;connectable=0;fillColor=none;top=0;left=0;bottom=0;right=0;overflow=hidden;" vertex="1" parent="-_webPQmhwI-9-KxhWY7-192">
          <mxGeometry width="60" height="40" as="geometry" />
        </mxCell>
        <mxCell id="-_webPQmhwI-9-KxhWY7-194" value="" style="shape=partialRectangle;html=1;whiteSpace=wrap;connectable=0;fillColor=none;top=0;left=0;bottom=0;right=0;overflow=hidden;" vertex="1" parent="-_webPQmhwI-9-KxhWY7-192">
          <mxGeometry x="60" width="60" height="40" as="geometry" />
        </mxCell>
        <mxCell id="-_webPQmhwI-9-KxhWY7-195" value="" style="shape=partialRectangle;html=1;whiteSpace=wrap;connectable=0;fillColor=none;top=0;left=0;bottom=0;right=0;overflow=hidden;" vertex="1" parent="-_webPQmhwI-9-KxhWY7-192">
          <mxGeometry x="120" width="60" height="40" as="geometry" />
        </mxCell>
        <mxCell id="-_webPQmhwI-9-KxhWY7-201" style="shape=partialRectangle;html=1;whiteSpace=wrap;connectable=0;fillColor=none;top=0;left=0;bottom=0;right=0;overflow=hidden;" vertex="1" parent="-_webPQmhwI-9-KxhWY7-192">
          <mxGeometry x="180" width="60" height="40" as="geometry" />
        </mxCell>
        <mxCell id="-_webPQmhwI-9-KxhWY7-196" value="" style="shape=partialRectangle;html=1;whiteSpace=wrap;collapsible=0;dropTarget=0;pointerEvents=0;fillColor=none;top=0;left=0;bottom=0;right=0;points=[[0,0.5],[1,0.5]];portConstraint=eastwest;" vertex="1" parent="-_webPQmhwI-9-KxhWY7-187">
          <mxGeometry y="80" width="240" height="40" as="geometry" />
        </mxCell>
        <mxCell id="-_webPQmhwI-9-KxhWY7-197" value="" style="shape=partialRectangle;html=1;whiteSpace=wrap;connectable=0;fillColor=none;top=0;left=0;bottom=0;right=0;overflow=hidden;" vertex="1" parent="-_webPQmhwI-9-KxhWY7-196">
          <mxGeometry width="60" height="40" as="geometry" />
        </mxCell>
        <mxCell id="-_webPQmhwI-9-KxhWY7-198" value="" style="shape=partialRectangle;html=1;whiteSpace=wrap;connectable=0;fillColor=none;top=0;left=0;bottom=0;right=0;overflow=hidden;" vertex="1" parent="-_webPQmhwI-9-KxhWY7-196">
          <mxGeometry x="60" width="60" height="40" as="geometry" />
        </mxCell>
        <mxCell id="-_webPQmhwI-9-KxhWY7-199" value="" style="shape=partialRectangle;html=1;whiteSpace=wrap;connectable=0;fillColor=none;top=0;left=0;bottom=0;right=0;overflow=hidden;" vertex="1" parent="-_webPQmhwI-9-KxhWY7-196">
          <mxGeometry x="120" width="60" height="40" as="geometry" />
        </mxCell>
        <mxCell id="-_webPQmhwI-9-KxhWY7-202" style="shape=partialRectangle;html=1;whiteSpace=wrap;connectable=0;fillColor=none;top=0;left=0;bottom=0;right=0;overflow=hidden;" vertex="1" parent="-_webPQmhwI-9-KxhWY7-196">
          <mxGeometry x="180" width="60" height="40" as="geometry" />
        </mxCell>
        <mxCell id="-_webPQmhwI-9-KxhWY7-203" style="shape=partialRectangle;html=1;whiteSpace=wrap;collapsible=0;dropTarget=0;pointerEvents=0;fillColor=none;top=0;left=0;bottom=0;right=0;points=[[0,0.5],[1,0.5]];portConstraint=eastwest;" vertex="1" parent="-_webPQmhwI-9-KxhWY7-187">
          <mxGeometry y="120" width="240" height="40" as="geometry" />
        </mxCell>
        <mxCell id="-_webPQmhwI-9-KxhWY7-204" style="shape=partialRectangle;html=1;whiteSpace=wrap;connectable=0;fillColor=none;top=0;left=0;bottom=0;right=0;overflow=hidden;" vertex="1" parent="-_webPQmhwI-9-KxhWY7-203">
          <mxGeometry width="60" height="40" as="geometry" />
        </mxCell>
        <mxCell id="-_webPQmhwI-9-KxhWY7-205" style="shape=partialRectangle;html=1;whiteSpace=wrap;connectable=0;fillColor=none;top=0;left=0;bottom=0;right=0;overflow=hidden;" vertex="1" parent="-_webPQmhwI-9-KxhWY7-203">
          <mxGeometry x="60" width="60" height="40" as="geometry" />
        </mxCell>
        <mxCell id="-_webPQmhwI-9-KxhWY7-206" style="shape=partialRectangle;html=1;whiteSpace=wrap;connectable=0;fillColor=none;top=0;left=0;bottom=0;right=0;overflow=hidden;" vertex="1" parent="-_webPQmhwI-9-KxhWY7-203">
          <mxGeometry x="120" width="60" height="40" as="geometry" />
        </mxCell>
        <mxCell id="-_webPQmhwI-9-KxhWY7-207" style="shape=partialRectangle;html=1;whiteSpace=wrap;connectable=0;fillColor=none;top=0;left=0;bottom=0;right=0;overflow=hidden;" vertex="1" parent="-_webPQmhwI-9-KxhWY7-203">
          <mxGeometry x="180" width="60" height="40" as="geometry" />
        </mxCell>
        <mxCell id="-_webPQmhwI-9-KxhWY7-208" value="" style="shape=table;html=1;whiteSpace=wrap;startSize=0;container=1;collapsible=0;childLayout=tableLayout;fontSize=20;" vertex="1" parent="1">
          <mxGeometry x="460" y="40" width="240" height="160" as="geometry" />
        </mxCell>
        <mxCell id="-_webPQmhwI-9-KxhWY7-209" value="" style="shape=partialRectangle;html=1;whiteSpace=wrap;collapsible=0;dropTarget=0;pointerEvents=0;fillColor=none;top=0;left=0;bottom=0;right=0;points=[[0,0.5],[1,0.5]];portConstraint=eastwest;" vertex="1" parent="-_webPQmhwI-9-KxhWY7-208">
          <mxGeometry width="240" height="40" as="geometry" />
        </mxCell>
        <mxCell id="-_webPQmhwI-9-KxhWY7-210" value="" style="shape=partialRectangle;html=1;whiteSpace=wrap;connectable=0;fillColor=none;top=0;left=0;bottom=0;right=0;overflow=hidden;" vertex="1" parent="-_webPQmhwI-9-KxhWY7-209">
          <mxGeometry width="60" height="40" as="geometry" />
        </mxCell>
        <mxCell id="-_webPQmhwI-9-KxhWY7-211" value="" style="shape=partialRectangle;html=1;whiteSpace=wrap;connectable=0;fillColor=none;top=0;left=0;bottom=0;right=0;overflow=hidden;" vertex="1" parent="-_webPQmhwI-9-KxhWY7-209">
          <mxGeometry x="60" width="60" height="40" as="geometry" />
        </mxCell>
        <mxCell id="-_webPQmhwI-9-KxhWY7-212" value="" style="shape=partialRectangle;html=1;whiteSpace=wrap;connectable=0;fillColor=none;top=0;left=0;bottom=0;right=0;overflow=hidden;" vertex="1" parent="-_webPQmhwI-9-KxhWY7-209">
          <mxGeometry x="120" width="60" height="40" as="geometry" />
        </mxCell>
        <mxCell id="-_webPQmhwI-9-KxhWY7-213" style="shape=partialRectangle;html=1;whiteSpace=wrap;connectable=0;fillColor=none;top=0;left=0;bottom=0;right=0;overflow=hidden;" vertex="1" parent="-_webPQmhwI-9-KxhWY7-209">
          <mxGeometry x="180" width="60" height="40" as="geometry" />
        </mxCell>
        <mxCell id="-_webPQmhwI-9-KxhWY7-214" value="" style="shape=partialRectangle;html=1;whiteSpace=wrap;collapsible=0;dropTarget=0;pointerEvents=0;fillColor=none;top=0;left=0;bottom=0;right=0;points=[[0,0.5],[1,0.5]];portConstraint=eastwest;" vertex="1" parent="-_webPQmhwI-9-KxhWY7-208">
          <mxGeometry y="40" width="240" height="40" as="geometry" />
        </mxCell>
        <mxCell id="-_webPQmhwI-9-KxhWY7-215" value="" style="shape=partialRectangle;html=1;whiteSpace=wrap;connectable=0;fillColor=none;top=0;left=0;bottom=0;right=0;overflow=hidden;" vertex="1" parent="-_webPQmhwI-9-KxhWY7-214">
          <mxGeometry width="60" height="40" as="geometry" />
        </mxCell>
        <mxCell id="-_webPQmhwI-9-KxhWY7-216" value="" style="shape=partialRectangle;html=1;whiteSpace=wrap;connectable=0;fillColor=none;top=0;left=0;bottom=0;right=0;overflow=hidden;" vertex="1" parent="-_webPQmhwI-9-KxhWY7-214">
          <mxGeometry x="60" width="60" height="40" as="geometry" />
        </mxCell>
        <mxCell id="-_webPQmhwI-9-KxhWY7-217" value="" style="shape=partialRectangle;html=1;whiteSpace=wrap;connectable=0;fillColor=none;top=0;left=0;bottom=0;right=0;overflow=hidden;" vertex="1" parent="-_webPQmhwI-9-KxhWY7-214">
          <mxGeometry x="120" width="60" height="40" as="geometry" />
        </mxCell>
        <mxCell id="-_webPQmhwI-9-KxhWY7-218" style="shape=partialRectangle;html=1;whiteSpace=wrap;connectable=0;fillColor=none;top=0;left=0;bottom=0;right=0;overflow=hidden;" vertex="1" parent="-_webPQmhwI-9-KxhWY7-214">
          <mxGeometry x="180" width="60" height="40" as="geometry" />
        </mxCell>
        <mxCell id="-_webPQmhwI-9-KxhWY7-219" value="" style="shape=partialRectangle;html=1;whiteSpace=wrap;collapsible=0;dropTarget=0;pointerEvents=0;fillColor=none;top=0;left=0;bottom=0;right=0;points=[[0,0.5],[1,0.5]];portConstraint=eastwest;" vertex="1" parent="-_webPQmhwI-9-KxhWY7-208">
          <mxGeometry y="80" width="240" height="40" as="geometry" />
        </mxCell>
        <mxCell id="-_webPQmhwI-9-KxhWY7-220" value="" style="shape=partialRectangle;html=1;whiteSpace=wrap;connectable=0;fillColor=none;top=0;left=0;bottom=0;right=0;overflow=hidden;" vertex="1" parent="-_webPQmhwI-9-KxhWY7-219">
          <mxGeometry width="60" height="40" as="geometry" />
        </mxCell>
        <mxCell id="-_webPQmhwI-9-KxhWY7-221" value="" style="shape=partialRectangle;html=1;whiteSpace=wrap;connectable=0;fillColor=none;top=0;left=0;bottom=0;right=0;overflow=hidden;" vertex="1" parent="-_webPQmhwI-9-KxhWY7-219">
          <mxGeometry x="60" width="60" height="40" as="geometry" />
        </mxCell>
        <mxCell id="-_webPQmhwI-9-KxhWY7-222" value="" style="shape=partialRectangle;html=1;whiteSpace=wrap;connectable=0;fillColor=none;top=0;left=0;bottom=0;right=0;overflow=hidden;" vertex="1" parent="-_webPQmhwI-9-KxhWY7-219">
          <mxGeometry x="120" width="60" height="40" as="geometry" />
        </mxCell>
        <mxCell id="-_webPQmhwI-9-KxhWY7-223" style="shape=partialRectangle;html=1;whiteSpace=wrap;connectable=0;fillColor=none;top=0;left=0;bottom=0;right=0;overflow=hidden;" vertex="1" parent="-_webPQmhwI-9-KxhWY7-219">
          <mxGeometry x="180" width="60" height="40" as="geometry" />
        </mxCell>
        <mxCell id="-_webPQmhwI-9-KxhWY7-224" style="shape=partialRectangle;html=1;whiteSpace=wrap;collapsible=0;dropTarget=0;pointerEvents=0;fillColor=none;top=0;left=0;bottom=0;right=0;points=[[0,0.5],[1,0.5]];portConstraint=eastwest;" vertex="1" parent="-_webPQmhwI-9-KxhWY7-208">
          <mxGeometry y="120" width="240" height="40" as="geometry" />
        </mxCell>
        <mxCell id="-_webPQmhwI-9-KxhWY7-225" style="shape=partialRectangle;html=1;whiteSpace=wrap;connectable=0;fillColor=none;top=0;left=0;bottom=0;right=0;overflow=hidden;" vertex="1" parent="-_webPQmhwI-9-KxhWY7-224">
          <mxGeometry width="60" height="40" as="geometry" />
        </mxCell>
        <mxCell id="-_webPQmhwI-9-KxhWY7-226" style="shape=partialRectangle;html=1;whiteSpace=wrap;connectable=0;fillColor=none;top=0;left=0;bottom=0;right=0;overflow=hidden;" vertex="1" parent="-_webPQmhwI-9-KxhWY7-224">
          <mxGeometry x="60" width="60" height="40" as="geometry" />
        </mxCell>
        <mxCell id="-_webPQmhwI-9-KxhWY7-227" style="shape=partialRectangle;html=1;whiteSpace=wrap;connectable=0;fillColor=none;top=0;left=0;bottom=0;right=0;overflow=hidden;" vertex="1" parent="-_webPQmhwI-9-KxhWY7-224">
          <mxGeometry x="120" width="60" height="40" as="geometry" />
        </mxCell>
        <mxCell id="-_webPQmhwI-9-KxhWY7-228" style="shape=partialRectangle;html=1;whiteSpace=wrap;connectable=0;fillColor=none;top=0;left=0;bottom=0;right=0;overflow=hidden;" vertex="1" parent="-_webPQmhwI-9-KxhWY7-224">
          <mxGeometry x="180" width="60" height="40" as="geometry" />
        </mxCell>
        <mxCell id="-_webPQmhwI-9-KxhWY7-229" value="1，在S0区标记出存活对象" style="rounded=0;whiteSpace=wrap;html=1;fontSize=20;strokeColor=none;" vertex="1" parent="1">
          <mxGeometry x="160" y="210" width="480" height="60" as="geometry" />
        </mxCell>
        <mxCell id="-_webPQmhwI-9-KxhWY7-230" value="2，将S0区中存活对象复制到S1区中" style="rounded=0;whiteSpace=wrap;html=1;fontSize=20;strokeWidth=1;strokeColor=none;" vertex="1" parent="1">
          <mxGeometry x="160" y="450" width="480" height="60" as="geometry" />
        </mxCell>
        <mxCell id="-_webPQmhwI-9-KxhWY7-231" value="3，清除S0区中的对象" style="rounded=0;whiteSpace=wrap;html=1;fontSize=20;fillColor=none;strokeColor=none;" vertex="1" parent="1">
          <mxGeometry x="160" y="690" width="480" height="60" as="geometry" />
        </mxCell>
      </root>
    </mxGraphModel>
  </diagram>
</mxfile>
